<?xml version="1.0" encoding="utf-8"?>
<!-- Generator: Adobe Illustrator 24.3.0, SVG Export Plug-In . SVG Version: 6.00 Build 0)  -->
<svg version="1.1" id="Layer_1" xmlns="http://www.w3.org/2000/svg" xmlns:xlink="http://www.w3.org/1999/xlink" x="0px" y="0px"
	 viewBox="0 0 91.4 82" style="enable-background:new 0 0 91.4 82;" xml:space="preserve">
<style type="text/css">
	.st0{filter:url(#Adobe_OpacityMaskFilter);}
	.st1{fill-rule:evenodd;clip-rule:evenodd;fill:#FFFFFF;}
	.st2{mask:url(#prefix__b_1_);fill-rule:evenodd;clip-rule:evenodd;fill:#002744;}
</style>
<g transform="translate(0 .582)">
	<defs>
		<filter id="Adobe_OpacityMaskFilter" filterUnits="userSpaceOnUse" x="0" y="0" width="89.9" height="80.5">
			<feColorMatrix  type="matrix" values="1 0 0 0 0  0 1 0 0 0  0 0 1 0 0  0 0 0 1 0"/>
		</filter>
	</defs>
	<mask maskUnits="userSpaceOnUse" x="0" y="0" width="89.9" height="80.5" id="prefix__b_1_">
		<g class="st0">
			<path id="prefix__a_1_" class="st1" d="M0,0h290.8v80.5H0V0z"/>
		</g>
	</mask>
	<path class="st2" d="M40,39l7,21.9c0.8,5.3-10.1,19-10.1,19s-6.5,1-9.8,0.6l3.3-11.6c0,0-8.3-0.5-12.2-1.7
		c-4.8-1.5-6.3-4.7-6.3-4.7L39,39L40,39z M45.7,38.5L76.3,48c0,0-0.3,4.8-10.7,9.4c-7.6,3.4-13.4,0.5-13.7,0.3l0,0l-6.7-18.7
		C45.2,39.1,45.7,38.5,45.7,38.5z M5.7,26.9l27.5,10.5l0.4,0.8l-24,19.7c0,0-8.2-2.3-9.4-12.7C-1.1,34.8,5.7,26.9,5.7,26.9L5.7,26.9
		z M80,12.4c0,0,8.7,8.4,9.7,16.2c1.6,11.7-7.6,15.5-7.6,15.5L49,33.9l0-0.8L80,12.4z M28.6,6.6l8.6,26.7l-0.6,0.4L8.2,21.9
		c0,0,3.1-6.1,7.7-9.9C22.1,6.8,28.6,6.6,28.6,6.6L28.6,6.6z M34.1,5.8C37.3,1.6,46-1.6,60.3,0.9c7.4,1.3,15.5,4,16.5,7.4L42.4,31.9
		l-0.8-0.3L34.1,5.8z"/>
</g>
</svg>
