<svg xmlns="http://www.w3.org/2000/svg" xmlns:xlink="http://www.w3.org/1999/xlink" width="292" height="82" viewBox="0 0 292 82">
    <defs>
        <path id="prefix__a" d="M0 0L290.777 0 290.777 80.533 0 80.533z"/>
    </defs>
    <g fill="none" fill-rule="evenodd" transform="translate(0 .582)">
        <mask id="prefix__b" fill="#fff">
            <use xlink:href="#prefix__a"/>
        </mask>
        <path fill="#002744" d="M40.035 38.983l6.977 21.864c.788 5.34-10.1 19.011-10.1 19.011s-6.456.981-9.84.584l3.276-11.635s-8.271-.461-12.235-1.7c-4.816-1.502-6.291-4.678-6.291-4.678l27.137-23.397 1.076-.049zm223.799 11.501c2.67 0 4.993 1.317 6.349 3.135v-2.708h5.768v19.863h-5.768v-2.907c-1.433 2.051-3.33 3.332-6.235 3.332-6.04 0-9.678-4.648-9.678-10.456 0-5.573 3.367-10.259 9.564-10.259zm-47.234 0c2.671 0 4.995 1.317 6.35 3.135v-2.708h5.769v19.863h-5.77v-2.907c-1.433 2.051-3.328 3.332-6.233 3.332-6.04 0-9.68-4.648-9.68-10.456 0-5.573 3.37-10.259 9.564-10.259zm-34.381-4.454v4.881h5.5v4.528h-5.5v9.293c0 .852.35 1.74 1.472 1.74 1.124 0 1.51-.927 1.51-1.858 0-.578-.154-1.39-.272-1.7h4.568c.35.734.466 1.665.466 2.359 0 2.945-1.936 5.926-6.62 5.926-3.484 0-6.892-1.242-6.892-7.008v-8.752h-2.98V50.91h3.407l.889-4.881h4.452zm-18.314 4.454c2.287 0 5.307.618 7.163 4.18l-4.45 2.053c-.503-1.587-1.936-1.898-2.827-1.898-1.085 0-2.207.62-2.207 1.628 0 .85.851 1.317 1.86 1.704l2.98 1.159c4.684 1.356 5.111 4.413 5.111 5.73 0 4.069-3.757 6.159-8.13 6.159-2.944 0-6.97-.931-8.325-5.073l4.182-2.364c.58 2.287 2.592 2.982 4.182 2.982 1.277 0 2.592-.504 2.592-1.508 0-.657-.386-1.122-1.47-1.513l-3.485-1.468c-4.724-1.667-4.956-4.804-4.956-5.694 0-3.987 3.523-6.077 7.78-6.077zm-25.514.427v10.686c0 2.748 1.01 4.838 3.68 4.838 2.673 0 3.795-2.13 3.795-4.879V50.911h5.768v19.863h-5.768v-2.712c-1.665 2.324-3.755 3.137-6.156 3.137-5.575 0-7.085-4.455-7.085-9.488v-10.8h5.766zm65.51-.427c.66 0 .852.039 1.47.153v5.692c-.81-.191-1.858-.268-2.437-.268-2.171 0-4.339 1.276-4.339 3.91v10.803h-5.766V50.91h5.614v4.334l.057-.277c.74-3.29 3.547-4.423 5.261-4.481zm46.498.427v19.863h-5.768V50.91h5.768zm-10.879-8.13v27.993h-5.767V42.78h5.767zm-119.559.888l10.61 27.105h-6.27l-1.937-5.073v.076h-10.647V65.7l-1.858 5.073h-6.195l10.454-27.105h5.843zm145.03 11.501c-3.172 0-4.953 2.554-4.953 5.612 0 3.175 1.937 5.733 5.111 5.733 2.824 0 5.188-1.822 5.188-5.422 0-3.678-2.207-5.923-5.346-5.923zm-47.23 0c-3.174 0-4.955 2.554-4.955 5.612 0 3.175 1.936 5.733 5.111 5.733 2.826 0 5.187-1.822 5.187-5.422 0-3.678-2.206-5.923-5.343-5.923zm-100.703-5.15l-3.715 10.839h7.317l-3.602-10.838zM45.67 38.544l30.659 9.453s-.319 4.783-10.684 9.407c-7.612 3.396-13.355.506-13.696.327l-.016-.008-6.695-18.656.432-.523zM5.737 26.859L33.212 37.35l.39.85L9.57 57.857S1.402 55.514.153 45.16c-1.248-10.354 5.584-18.3 5.584-18.3zm278.738 24.04l1.59 3.682 1.586-3.682h.57l.404 4.368h-.495l-.323-3.663-1.554 3.607h-.381l-1.553-3.607-.325 3.663h-.492l.411-4.368h.562zm-1.28 0v.4h-1.528v3.967h-.481V51.3h-1.522v-.4h3.53zm-35.624-8.547c2.052 0 3.68 1.356 3.68 3.291 0 1.9-1.628 3.213-3.68 3.213-2.09 0-3.639-1.314-3.639-3.213 0-1.935 1.55-3.291 3.64-3.291zM80.015 12.422s8.685 8.358 9.73 16.196c1.555 11.66-7.616 15.459-7.616 15.459L49.01 33.863l-.039-.827zm168.758-1.304v4.879h5.5v4.53h-5.5v9.293c0 .852.35 1.742 1.472 1.742 1.124 0 1.51-.927 1.51-1.858 0-.582-.154-1.395-.272-1.704h4.57c.348.734.464 1.665.464 2.36 0 2.942-1.936 5.925-6.62 5.925-3.485 0-6.892-1.236-6.892-7.008v-8.75h-2.98v-4.53h3.405l.89-4.88h4.453zm-44.756 4.454c5.498 0 10.763 3.796 10.763 11.692h-15.99c.116 2.48 2.401 4.298 6.077 4.298 2.055 0 4.105-1.047 5.5-2.362l3.33 3.173c-2.826 3.099-6.581 3.912-9.255 3.912-7.355 0-11.38-4.605-11.38-10.259 0-5.849 4.566-10.454 10.955-10.454zm-59.08 0c5.497 0 10.76 3.796 10.76 11.692H139.71c.116 2.48 2.399 4.298 6.077 4.298 2.053 0 4.105-1.047 5.5-2.362l3.33 3.173c-2.829 3.099-6.584 3.912-9.255 3.912-7.356 0-11.383-4.605-11.383-10.259 0-5.849 4.568-10.454 10.958-10.454zm133.726 0c2.667 0 4.993 1.316 6.349 3.137v-2.712h5.768V35.86h-5.768v-2.903c-1.433 2.05-3.33 3.328-6.233 3.328-6.04 0-9.682-4.648-9.682-10.454 0-5.573 3.37-10.259 9.566-10.259zm-96.172 0c5.577 0 7.084 4.452 7.084 9.486V35.86h-5.768V25.172c0-2.71-.775-4.837-3.328-4.837-2.517 0-3.294 2.204-3.294 4.876V35.86h-5.727V25.172c0-2.71-.777-4.837-3.332-4.837-2.515 0-3.29 2.204-3.29 4.876V35.86h-5.767V15.997h5.767v2.712c1.28-1.976 3.137-3.137 5.305-3.137 3.017 0 5.072 1.316 6.076 3.328 1.511-2.903 4.378-3.328 6.274-3.328zm47.582 0c5.576 0 7.085 4.452 7.085 9.486V35.86h-5.768V25.172c0-2.747-1.008-4.837-3.68-4.837-2.669 0-3.791 2.127-3.791 4.876V35.86h-5.772V15.997h5.772v2.712c1.665-2.322 3.755-3.137 6.154-3.137zM116.789 8.757c8.867 0 14.403 6.08 14.403 13.55 0 7.474-5.536 13.553-14.403 13.553h-10.144V8.757zm148.44 7.24V35.86h-5.767V15.997h5.766zM28.583 6.623l8.64 26.712-.585.392L8.206 21.948s3.061-6.065 7.69-9.936c6.182-5.167 12.688-5.39 12.688-5.39zm5.525-.858c3.221-4.182 11.9-7.39 26.21-4.88C67.767 2.191 75.822 4.89 76.867 8.3l-34.42 23.63-.784-.258zm245.715 14.493c-3.176 0-4.957 2.556-4.957 5.613 0 3.174 1.937 5.73 5.111 5.73 2.826 0 5.188-1.82 5.188-5.422 0-3.676-2.206-5.92-5.342-5.92zm-163.035-6.74h-4.143v17.58h4.143c5.15 0 8.362-3.948 8.362-8.79 0-4.841-3.212-8.79-8.362-8.79zm87.151 6.74c-1.858 0-4.336.85-5.034 3.523h9.95c-.386-2.557-2.98-3.523-4.916-3.523zm-59.082 0c-1.858 0-4.335.85-5.032 3.523h9.95c-.387-2.557-2.98-3.523-4.918-3.523zM262.402 7.442c2.052 0 3.678 1.354 3.678 3.291 0 1.895-1.626 3.21-3.678 3.21-2.092 0-3.639-1.315-3.639-3.21 0-1.937 1.547-3.291 3.64-3.291z" mask="url(#prefix__b)"/>
    </g>
</svg>
